<svg width="488" height="361" viewBox="0 0 488 361" fill="none" xmlns="http://www.w3.org/2000/svg">
<path d="M481.488 222.623C481.488 251.333 457.075 274.607 426.959 274.607C396.844 274.607 372.431 251.333 372.431 222.623C372.431 193.913 396.844 170.639 426.959 170.639C457.075 170.639 481.488 193.913 481.488 222.623Z" fill="black"/>
<path d="M400.786 170.639C400.786 199.349 376.373 222.623 346.257 222.623C316.142 222.623 291.729 199.349 291.729 170.639C291.729 141.929 316.142 118.655 346.257 118.655C376.373 118.655 400.786 141.929 400.786 170.639Z" fill="black"/>
<path d="M346.257 118.655C346.257 147.365 321.844 170.639 291.729 170.639C261.614 170.639 237.201 147.365 237.201 118.655C237.201 89.9454 261.614 66.6714 291.729 66.6714C321.844 66.6714 346.257 89.9454 346.257 118.655Z" fill="black"/>
<path d="M455.314 146.727C455.314 175.436 430.901 198.71 400.786 198.71C370.671 198.71 346.257 175.436 346.257 146.727C346.257 118.017 370.671 94.7427 400.786 94.7427C430.901 94.7427 455.314 118.017 455.314 146.727Z" fill="black"/>
<path d="M400.786 94.7427C400.786 123.453 376.373 146.727 346.257 146.727C316.142 146.727 291.729 123.453 291.729 94.7427C291.729 66.0328 316.142 42.7588 346.257 42.7588C376.373 42.7588 400.786 66.0328 400.786 94.7427Z" fill="black"/>
<path d="M400.786 94.7427C400.786 123.453 376.373 146.727 346.257 146.727C316.142 146.727 291.729 123.453 291.729 94.7427C291.729 66.0328 316.142 42.7588 346.257 42.7588C376.373 42.7588 400.786 66.0328 400.786 94.7427Z" fill="black"/>
<path d="M357.163 73.9492C357.163 102.659 332.75 125.933 302.635 125.933C272.519 125.933 248.106 102.659 248.106 73.9492C248.106 45.2393 272.519 21.9653 302.635 21.9653C332.75 21.9653 357.163 45.2393 357.163 73.9492Z" fill="black"/>
<path d="M248.106 118.655C248.106 147.365 223.693 170.639 193.578 170.639C163.463 170.639 139.049 147.365 139.049 118.655C139.049 89.9454 163.463 66.6714 193.578 66.6714C223.693 66.6714 248.106 89.9454 248.106 118.655Z" fill="black"/>
<path d="M139.049 146.727C139.049 175.436 114.636 198.71 84.5209 198.71C54.4057 198.71 29.9925 175.436 29.9925 146.727C29.9925 118.017 54.4057 94.7427 84.5209 94.7427C114.636 94.7427 139.049 118.017 139.049 146.727Z" fill="black"/>
<path d="M193.578 94.7427C193.578 123.453 169.165 146.727 139.049 146.727C108.934 146.727 84.5209 123.453 84.5209 94.7427C84.5209 66.0328 108.934 42.7588 139.049 42.7588C169.165 42.7588 193.578 66.0328 193.578 94.7427Z" fill="black"/>
<path d="M242.653 73.9492C242.653 102.659 218.24 125.933 188.125 125.933C158.01 125.933 133.597 102.659 133.597 73.9492C133.597 45.2393 158.01 21.9653 188.125 21.9653C218.24 21.9653 242.653 45.2393 242.653 73.9492Z" fill="black"/>
<path d="M115.057 222.623C115.057 251.333 90.6437 274.607 60.5284 274.607C30.4132 274.607 6 251.333 6 222.623C6 193.913 30.4132 170.639 60.5284 170.639C90.6437 170.639 115.057 193.913 115.057 222.623Z" fill="black"/>
<path d="M195.759 170.639C195.759 199.349 171.346 222.623 141.23 222.623C111.115 222.623 86.702 199.349 86.702 170.639C86.702 141.929 111.115 118.655 141.23 118.655C171.346 118.655 195.759 141.929 195.759 170.639Z" fill="black"/>
<path d="M298.272 162.322C298.272 191.032 273.859 214.306 243.744 214.306C213.629 214.306 189.216 191.032 189.216 162.322C189.216 133.612 213.629 110.338 243.744 110.338C273.859 110.338 298.272 133.612 298.272 162.322Z" fill="black"/>
<path d="M298.272 58.354C298.272 87.0639 273.859 110.338 243.744 110.338C213.629 110.338 189.216 87.0639 189.216 58.354C189.216 29.6441 213.629 6.37012 243.744 6.37012C273.859 6.37012 298.272 29.6441 298.272 58.354Z" fill="black"/>
<path fill-rule="evenodd" clip-rule="evenodd" d="M231.666 215.343C235.101 206.122 236.979 196.142 236.979 185.724C236.979 138.862 198.99 100.873 152.128 100.873C105.266 100.873 67.2773 138.862 67.2773 185.724C67.2773 214.789 81.8916 240.441 104.173 255.733C111.24 247.167 115.441 236.442 115.441 224.804C115.441 222.619 115.293 220.467 115.006 218.355C122.877 222.462 131.952 224.804 141.615 224.804C166.999 224.804 188.332 208.644 194.408 186.765C201.302 200.983 215.017 211.716 231.666 215.343Z" fill="#A107CF"/>
<path d="M36.5917 211.069L49.1728 225.873L68.3445 225.736L53.8778 238.611L54.0117 258.229L41.4305 243.425L22.2588 243.562L36.7255 230.688L36.5917 211.069Z" fill="#E3CB00"/>
<path d="M189.895 52.8467L177.391 67.7185L180.283 87.1128L165.75 74.3169L146.798 77.2771L159.302 62.4054L156.409 43.0111L170.942 55.807L189.895 52.8467Z" fill="#E3CB00"/>
<path d="M223.554 32.9536L238.94 44.6595L257.639 40.3274L246.199 56.0715L250.433 75.2062L235.047 63.5003L216.348 67.8324L227.788 52.0883L223.554 32.9536Z" fill="#E3CB00"/>
<path d="M284.978 106.75L270.828 119.988L271.438 139.597L258.502 125.117L239.339 125.741L253.489 112.503L252.88 92.8938L265.816 107.374L284.978 106.75Z" fill="#E3CB00"/>
<path d="M298.625 35.242L310.555 50.6002L329.713 51.3301L314.705 63.5379L313.992 83.1432L302.062 67.785L282.903 67.0551L297.912 54.8474L298.625 35.242Z" fill="#E3CB00"/>
<path d="M377.233 65.1817L379.729 84.6335L395.785 95.3559L376.776 97.9109L366.298 114.341L363.801 94.8887L347.746 84.1664L366.754 81.6114L377.233 65.1817Z" fill="#E3CB00"/>
<path d="M326.527 99.8551L332.422 118.523L350.109 126.095L331.866 132.128L324.466 150.227L318.57 131.559L300.884 123.987L319.127 117.954L326.527 99.8551Z" fill="#E3CB00"/>
<path d="M320.942 159.583L334.4 173.556L353.526 172.197L339.871 185.969L341.199 205.54L327.741 191.567L308.615 192.926L322.27 179.155L320.942 159.583Z" fill="#E3CB00"/>
<path d="M410.917 182.543L401.409 199.58L407.859 218.056L391.21 208.326L373.156 214.926L382.663 197.889L376.214 179.414L392.862 189.143L410.917 182.543Z" fill="#E3CB00"/>
<path d="M420.586 113.169L423.875 132.497L440.354 142.524L421.466 145.889L411.668 162.752L408.379 143.424L391.9 133.397L410.788 130.032L420.586 113.169Z" fill="#E3CB00"/>
<path d="M459.811 198.217L460.226 217.831L475.047 230.277L455.879 230.701L443.717 245.867L443.302 226.253L428.481 213.808L447.649 213.383L459.811 198.217Z" fill="#E3CB00"/>
<path d="M484.488 222.623C484.488 200.544 470.919 181.618 451.426 172.85C455.817 165.091 458.314 156.199 458.314 146.727C458.314 117.17 433.999 93.2638 403.706 91.8125C402.136 63.1512 377.668 40.4876 347.71 39.7761C337.148 27.0759 320.843 18.9653 302.635 18.9653C296.93 18.9653 291.411 19.7615 286.198 21.2457C275.658 10.2445 260.507 3.37012 243.744 3.37012C227.329 3.37012 212.459 9.96226 201.952 20.5665C197.519 19.52 192.887 18.9653 188.125 18.9653C169.865 18.9653 153.519 27.1219 142.96 39.8842C141.667 39.8011 140.363 39.7588 139.049 39.7588C108.434 39.7588 83.1962 62.6894 81.6009 91.8125C51.3077 93.2638 26.9925 117.17 26.9925 146.727C26.9925 156.528 29.6667 165.709 34.3463 173.655C15.7771 182.741 3 201.198 3 222.623C3 253.123 28.8931 277.607 60.5284 277.607C92.1638 277.607 118.057 253.123 118.057 222.623C118.057 222.068 118.048 221.515 118.031 220.965C125.137 223.961 132.989 225.623 141.23 225.623C165.377 225.623 186.178 211.359 194.673 191.044C204.812 206.829 223.049 217.306 243.744 217.306C264.438 217.306 282.676 206.829 292.815 191.044C301.31 211.359 322.111 225.623 346.257 225.623C354.499 225.623 362.351 223.961 369.457 220.965C369.44 221.515 369.431 222.068 369.431 222.623C369.431 253.123 395.324 277.607 426.959 277.607C458.595 277.607 484.488 253.123 484.488 222.623Z" stroke="#E3CB00" stroke-width="6"/>
<path d="M128.764 111.238L129.102 110.404L128.525 109.713L127.374 110.674C128.525 109.713 128.525 109.713 128.525 109.712L128.523 109.71L128.519 109.706L128.515 109.701L128.483 109.662L128.357 109.512L127.867 108.924L126 106.687L119.292 98.6491L116.819 95.6865C116.98 95.5268 117.165 95.3531 117.372 95.1725C118.272 94.3892 119.556 93.5153 121.148 93.0523C122.713 92.597 124.629 92.5215 126.876 93.3963C129.148 94.2805 131.842 96.1692 134.865 99.7906C138.018 103.569 140.528 106.23 142.607 108.017C144.666 109.788 146.435 110.82 148.106 111.125C149.879 111.448 151.307 110.915 152.535 110.109C153.317 109.596 154.133 108.882 154.917 108.196C155.245 107.909 155.567 107.627 155.879 107.367C157.357 106.134 158.242 104.562 158.367 102.601C158.487 100.724 157.902 98.6342 156.792 96.3058C154.576 91.66 149.955 85.4389 142.845 76.9188C135.175 67.728 123.869 67.6794 114.908 69.6906C110.392 70.7039 106.35 72.2615 103.444 73.5599C101.989 74.2103 100.812 74.7987 99.9947 75.2265C99.9348 75.2579 99.8768 75.2884 99.8207 75.318L98.5379 73.7809L64.1531 32.5792C62.4528 30.5417 59.8803 29.0378 56.9527 28.0272C54.0083 27.0108 50.5997 26.4561 47.0982 26.3915C40.1378 26.2629 32.525 28.0715 27.3215 32.4141C22.0956 36.7753 19.1107 44.138 18.0701 51.0707C17.5459 54.5629 17.5012 58.0269 17.9444 61.0616C18.3831 64.0654 19.322 66.7974 20.894 68.681L55.0634 109.625L56.5616 111.42C56.5223 111.47 56.4819 111.521 56.4402 111.575C55.8731 112.302 55.0836 113.355 54.1833 114.671C52.386 117.297 50.1304 120.995 48.3254 125.257C44.7433 133.714 42.7684 144.845 50.4386 154.036C57.549 162.556 62.8429 168.216 67.0173 171.227C69.1094 172.736 71.0604 173.686 72.9292 173.903C74.8813 174.131 76.5854 173.541 78.063 172.308C78.375 172.048 78.7103 171.781 79.0513 171.509C79.8661 170.861 80.7143 170.186 81.3595 169.508C82.3724 168.444 83.1525 167.135 83.1512 165.332C83.15 163.634 82.451 161.709 81.0774 159.366C79.6909 157.001 77.522 154.055 74.369 150.277C71.3468 146.656 69.9706 143.667 69.5072 141.274C69.0486 138.906 69.4657 137.034 70.1936 135.576C70.934 134.093 72.0235 132.986 72.9553 132.24C73.1701 132.069 73.3741 131.918 73.5601 131.788L75.9517 134.654L82.717 142.761L84.6012 145.018L85.0964 145.612L85.2232 145.764L85.2553 145.802L85.2634 145.812L85.2654 145.814C85.2658 145.815 85.2661 145.815 86.4177 144.854L85.2661 145.815L85.8427 146.506L86.7238 146.322L101.52 143.238L101.887 143.162L102.175 142.922L122.653 125.832L122.941 125.591L123.082 125.244L128.764 111.238Z" fill="white" stroke="black" stroke-width="3"/>
<ellipse cx="49.3527" cy="58.6705" rx="12.317" ry="17.7913" transform="rotate(-41.158 49.3527 58.6705)" fill="#1EF3DA"/>
<ellipse cx="142.811" cy="286.882" rx="71.1202" ry="71.1202" fill="white" stroke="#E3CB00" stroke-width="6"/>
<ellipse cx="346.012" cy="286.882" rx="71.1202" ry="71.1202" fill="white" stroke="#E3CB00" stroke-width="6"/>
<path d="M210.976 285.862C210.693 287.495 211.787 289.048 213.42 289.33C215.053 289.613 216.605 288.518 216.888 286.886L210.976 285.862ZM213.932 286.374C216.888 286.886 216.887 286.887 216.887 286.888C216.887 286.888 216.887 286.889 216.887 286.89C216.887 286.891 216.887 286.892 216.887 286.892C216.887 286.892 216.887 286.891 216.887 286.889C216.888 286.884 216.89 286.872 216.893 286.855C216.9 286.821 216.911 286.762 216.928 286.682C216.961 286.521 217.015 286.272 217.094 285.948C217.252 285.298 217.508 284.35 217.894 283.203C218.669 280.901 219.947 277.852 221.956 274.825C225.924 268.844 232.695 262.958 244.412 262.958L244.412 256.958C230.22 256.958 221.752 264.28 216.956 271.507C214.583 275.084 213.1 278.639 212.208 281.29C211.76 282.62 211.457 283.735 211.264 284.53C211.167 284.928 211.097 285.247 211.051 285.473C211.028 285.586 211.01 285.676 210.998 285.741C210.991 285.774 210.987 285.801 210.983 285.821C210.981 285.831 210.98 285.84 210.978 285.847C210.978 285.85 210.977 285.853 210.977 285.856C210.977 285.857 210.976 285.859 210.976 285.859C210.976 285.861 210.976 285.862 213.932 286.374ZM244.412 262.958C256.128 262.958 262.9 268.844 266.867 274.825C268.876 277.852 270.154 280.901 270.929 283.203C271.315 284.35 271.572 285.298 271.73 285.948C271.809 286.272 271.863 286.521 271.896 286.682C271.912 286.762 271.924 286.821 271.93 286.855C271.933 286.872 271.935 286.884 271.936 286.889C271.937 286.891 271.937 286.892 271.937 286.892C271.937 286.892 271.937 286.891 271.936 286.89C271.936 286.889 271.936 286.888 271.936 286.888C271.936 286.887 271.936 286.886 274.892 286.374C277.848 285.862 277.848 285.861 277.847 285.859C277.847 285.859 277.847 285.857 277.847 285.856C277.846 285.853 277.846 285.85 277.845 285.847C277.844 285.84 277.842 285.831 277.84 285.821C277.837 285.801 277.832 285.774 277.826 285.741C277.813 285.676 277.796 285.586 277.773 285.473C277.726 285.247 277.657 284.928 277.56 284.53C277.367 283.735 277.064 282.62 276.616 281.29C275.724 278.639 274.24 275.084 271.867 271.507C267.072 264.28 258.603 256.958 244.412 256.958L244.412 262.958Z" fill="#E3CB00"/>
<path d="M345.403 241.765L357.601 274.729L390.565 286.927L357.601 299.125L345.403 332.09L333.205 299.125L300.24 286.927L333.205 274.729L345.403 241.765Z" fill="#E3CB00"/>
<path d="M142.856 241.765L155.054 274.729L188.018 286.927L155.054 299.125L142.856 332.09L130.658 299.125L97.6934 286.927L130.658 274.729L142.856 241.765Z" fill="#E3CB00"/>
</svg>
