<svg width="398" height="144" viewBox="0 0 398 144" fill="none" xmlns="http://www.w3.org/2000/svg">
<path d="M29.184 106.672C24.704 106.672 20.672 105.904 17.088 104.368C13.504 102.768 10.688 100.528 8.64 97.648C6.592 94.768 5.568 91.408 5.568 87.568H17.28C17.536 90.448 18.656 92.816 20.64 94.672C22.688 96.528 25.536 97.456 29.184 97.456C32.96 97.456 35.904 96.56 38.016 94.768C40.128 92.912 41.184 90.544 41.184 87.664C41.184 85.424 40.512 83.6 39.168 82.192C37.888 80.784 36.256 79.696 34.272 78.928C32.352 78.16 29.664 77.328 26.208 76.432C21.856 75.28 18.304 74.128 15.552 72.976C12.864 71.76 10.56 69.904 8.64 67.408C6.72 64.912 5.76 61.584 5.76 57.424C5.76 53.584 6.72 50.224 8.64 47.344C10.56 44.464 13.248 42.256 16.704 40.72C20.16 39.184 24.16 38.416 28.704 38.416C35.168 38.416 40.448 40.048 44.544 43.312C48.704 46.512 51.008 50.928 51.456 56.56H39.36C39.168 54.128 38.016 52.048 35.904 50.32C33.792 48.592 31.008 47.728 27.552 47.728C24.416 47.728 21.856 48.528 19.872 50.128C17.888 51.728 16.896 54.032 16.896 57.04C16.896 59.088 17.504 60.784 18.72 62.128C20 63.408 21.6 64.432 23.52 65.2C25.44 65.968 28.064 66.8 31.392 67.696C35.808 68.912 39.392 70.128 42.144 71.344C44.96 72.56 47.328 74.448 49.248 77.008C51.232 79.504 52.224 82.864 52.224 87.088C52.224 90.48 51.296 93.68 49.44 96.688C47.648 99.696 44.992 102.128 41.472 103.984C38.016 105.776 33.92 106.672 29.184 106.672ZM79.8255 62.032V91.312C79.8255 93.296 80.2735 94.736 81.1695 95.632C82.1295 96.464 83.7295 96.88 85.9695 96.88H92.6895V106H84.0495C79.1215 106 75.3455 104.848 72.7215 102.544C70.0975 100.24 68.7855 96.496 68.7855 91.312V62.032H62.5455V53.104H68.7855V39.952H79.8255V53.104H92.6895V62.032H79.8255ZM153.176 78.256C153.176 80.24 153.048 82.032 152.792 83.632H112.376C112.696 87.856 114.264 91.248 117.08 93.808C119.896 96.368 123.352 97.648 127.448 97.648C133.336 97.648 137.496 95.184 139.928 90.256H151.736C150.136 95.12 147.224 99.12 143 102.256C138.84 105.328 133.656 106.864 127.448 106.864C122.392 106.864 117.848 105.744 113.816 103.504C109.848 101.2 106.712 98 104.408 93.904C102.168 89.744 101.048 84.944 101.048 79.504C101.048 74.064 102.136 69.296 104.312 65.2C106.552 61.04 109.656 57.84 113.624 55.6C117.656 53.36 122.264 52.24 127.448 52.24C132.44 52.24 136.888 53.328 140.792 55.504C144.696 57.68 147.736 60.752 149.912 64.72C152.088 68.624 153.176 73.136 153.176 78.256ZM141.752 74.8C141.688 70.768 140.248 67.536 137.432 65.104C134.616 62.672 131.128 61.456 126.968 61.456C123.192 61.456 119.96 62.672 117.272 65.104C114.584 67.472 112.984 70.704 112.472 74.8H141.752ZM176.81 34.96V106H165.866V34.96H176.81ZM204.043 34.96V106H193.099V34.96H204.043ZM298.43 60.784C300.03 58.096 302.142 56.016 304.766 54.544C307.454 53.008 310.622 52.24 314.27 52.24V63.568H311.486C307.198 63.568 303.934 64.656 301.694 66.832C299.518 69.008 298.43 72.784 298.43 78.16V106H287.486V53.104H298.43V60.784ZM331.818 46.096C329.834 46.096 328.17 45.424 326.826 44.08C325.482 42.736 324.81 41.072 324.81 39.088C324.81 37.104 325.482 35.44 326.826 34.096C328.17 32.752 329.834 32.08 331.818 32.08C333.738 32.08 335.37 32.752 336.714 34.096C338.058 35.44 338.73 37.104 338.73 39.088C338.73 41.072 338.058 42.736 336.714 44.08C335.37 45.424 333.738 46.096 331.818 46.096ZM337.194 53.104V106H326.25V53.104H337.194ZM372.683 106.864C368.523 106.864 364.779 106.128 361.451 104.656C358.187 103.12 355.595 101.072 353.675 98.512C351.755 95.888 350.731 92.976 350.603 89.776H361.931C362.123 92.016 363.179 93.904 365.099 95.44C367.083 96.912 369.547 97.648 372.491 97.648C375.563 97.648 377.931 97.072 379.595 95.92C381.323 94.704 382.187 93.168 382.187 91.312C382.187 89.328 381.227 87.856 379.307 86.896C377.451 85.936 374.475 84.88 370.379 83.728C366.411 82.64 363.179 81.584 360.683 80.56C358.187 79.536 356.011 77.968 354.155 75.856C352.363 73.744 351.467 70.96 351.467 67.504C351.467 64.688 352.299 62.128 353.963 59.824C355.627 57.456 357.995 55.6 361.067 54.256C364.203 52.912 367.787 52.24 371.819 52.24C377.835 52.24 382.667 53.776 386.315 56.848C390.027 59.856 392.011 63.984 392.267 69.232H381.323C381.131 66.864 380.171 64.976 378.443 63.568C376.715 62.16 374.379 61.456 371.435 61.456C368.555 61.456 366.347 62 364.811 63.088C363.275 64.176 362.507 65.616 362.507 67.408C362.507 68.816 363.019 70 364.043 70.96C365.067 71.92 366.315 72.688 367.787 73.264C369.259 73.776 371.435 74.448 374.315 75.28C378.155 76.304 381.291 77.36 383.723 78.448C386.219 79.472 388.363 81.008 390.155 83.056C391.947 85.104 392.875 87.824 392.939 91.216C392.939 94.224 392.107 96.912 390.443 99.28C388.779 101.648 386.411 103.504 383.339 104.848C380.331 106.192 376.779 106.864 372.683 106.864Z" fill="black"/>
<path d="M217.166 66H235.237L244.089 41.9716C244.407 41.1083 245.624 41.0963 245.959 41.9531L255.361 66H273.857C274.832 66 275.23 67.2528 274.435 67.8162L260.052 77.9985L269.793 102.914C270.154 103.836 269.098 104.665 268.288 104.097L245.639 88.2026L223.13 104.138C222.329 104.705 221.275 103.898 221.614 102.976L230.874 77.8415L216.591 67.8186C215.792 67.2573 216.189 66 217.166 66Z" fill="#FBE106" stroke="#FBE106" stroke-width="4"/>
</svg>
